<svg id="はてなのアイコン" xmlns="http://www.w3.org/2000/svg" width="21" height="21" viewBox="0 0 21 21">
  <path id="パス_1679" data-name="パス 1679" d="M17.924,3.075A10.5,10.5,0,1,0,21,10.5,10.472,10.472,0,0,0,17.924,3.075Zm-1.54,1.54A8.322,8.322,0,1,1,10.5,2.178,8.292,8.292,0,0,1,16.385,4.615Z" transform="translate(0 0)" fill="#fff"/>
  <path id="パス_1680" data-name="パス 1680" d="M218.081,329.326a1.061,1.061,0,1,0,1.061,1.061A1.062,1.062,0,0,0,218.081,329.326Z" transform="translate(-208.124 -315.827)" fill="#fff"/>
  <path id="パス_1681" data-name="パス 1681" d="M180.962,132.992l.723.579a.39.39,0,0,0,.5-.01.981.981,0,0,1,.367-.319,2.318,2.318,0,0,1,1.184-.287,1.8,1.8,0,0,1,1.167.417,1.309,1.309,0,0,1,.308.376.685.685,0,0,1,.088.313,1.3,1.3,0,0,1-.133.612,1.236,1.236,0,0,1-.236.317,2.648,2.648,0,0,1-.576.412c-.226.127-.47.24-.716.375a2.217,2.217,0,0,0-.8.715,1.936,1.936,0,0,0-.25.556,2.362,2.362,0,0,0-.08.625v.417a.391.391,0,0,0,.39.39h.94a.39.39,0,0,0,.39-.39v-.417a.641.641,0,0,1,.019-.169.208.208,0,0,1,.05-.094.665.665,0,0,1,.175-.127c.141-.079.368-.186.625-.325a4.153,4.153,0,0,0,1.246-.966,2.877,2.877,0,0,0,.489-.844,3.12,3.12,0,0,0,.185-1.085,2.4,2.4,0,0,0-.284-1.111,3.135,3.135,0,0,0-1.193-1.227,3.554,3.554,0,0,0-1.806-.488,4.046,4.046,0,0,0-2.038.513,2.277,2.277,0,0,0-.747.645.39.39,0,0,0,.011.6Z" transform="translate(-173.418 -125.868)" fill="#fff"/>
</svg>
