<svg xmlns="http://www.w3.org/2000/svg" width="38" height="47" viewBox="0 0 38 47">
  <g id="PDFアイコン_1_" data-name="PDFアイコン (1)" transform="translate(-47.706)">
    <path id="パス_1735" data-name="パス 1735" d="M77.872,0H61.152L60.3.855,48.556,12.677l-.85.855V39.115A7.869,7.869,0,0,0,55.541,47H77.872a7.869,7.869,0,0,0,7.834-7.885V7.885A7.868,7.868,0,0,0,77.872,0Zm4.933,39.115a4.949,4.949,0,0,1-4.933,4.965H55.541a4.95,4.95,0,0,1-4.935-4.965V14.742h7.636A4.125,4.125,0,0,0,62.355,10.6V2.92H77.872a4.949,4.949,0,0,1,4.933,4.965Z" transform="translate(0)" fill="#0072ad"/>
    <path id="パス_1736" data-name="パス 1736" d="M138.148,252.785h-2.619a.749.749,0,0,0-.8.81v6.77a.918.918,0,1,0,1.832,0v-2.057a.067.067,0,0,1,.076-.075h1.509a2.733,2.733,0,1,0,0-5.449Zm-.113,3.865h-1.4a.067.067,0,0,1-.076-.074v-2.132a.067.067,0,0,1,.076-.075h1.4a1.144,1.144,0,1,1,0,2.282Z" transform="translate(-79.098 -229.58)" fill="#0072ad"/>
    <path id="パス_1737" data-name="パス 1737" d="M222.442,252.785h-2.007a.749.749,0,0,0-.8.81v6.87a.739.739,0,0,0,.8.8h2.007c1.807,0,2.93-.574,3.379-1.957a10.54,10.54,0,0,0,0-4.564C225.372,253.359,224.249,252.785,222.442,252.785Zm1.622,5.885c-.213.673-.823.96-1.672.96h-.847a.067.067,0,0,1-.076-.075v-5.062a.067.067,0,0,1,.076-.075h.847c.849,0,1.459.287,1.672.96a9.183,9.183,0,0,1,0,3.292Z" transform="translate(-156.268 -229.58)" fill="#0072ad"/>
    <path id="パス_1738" data-name="パス 1738" d="M312.567,252.785h-4.114a.75.75,0,0,0-.8.81v6.77a.918.918,0,1,0,1.833,0v-2.419a.066.066,0,0,1,.074-.074h2.395a.788.788,0,1,0,0-1.571h-2.395a.066.066,0,0,1-.074-.075v-1.783a.066.066,0,0,1,.074-.075h3a.794.794,0,1,0,0-1.583Z" transform="translate(-236.264 -229.58)" fill="#0072ad"/>
  </g>
</svg>
