<svg xmlns="http://www.w3.org/2000/svg" width="47" height="35.001" viewBox="0 0 47 35.001">
  <g id="メールの無料アイコン素材_2_" data-name="メールの無料アイコン素材 (2)" transform="translate(0 -63.519)">
    <path id="パス_1727" data-name="パス 1727" d="M452,181.161l-6.083-6.318L452,169.6Z" transform="translate(-405.003 -96.494)" fill="#0072ad"/>
    <path id="パス_1728" data-name="パス 1728" d="M6.09,174.843,0,181.169V169.6Z" transform="translate(0 -96.495)" fill="#0072ad"/>
    <path id="パス_1729" data-name="パス 1729" d="M47,264.335v5.817a2.545,2.545,0,0,1-2.541,2.548H2.541A2.545,2.545,0,0,1,0,270.152v-5.817l9.084-9.456,10.377,8.962a6.383,6.383,0,0,0,8.085,0l10.369-8.962Z" transform="translate(0 -174.181)" fill="#0072ad"/>
    <path id="パス_1730" data-name="パス 1730" d="M47,66.015v2.5L24.836,87.326a2.188,2.188,0,0,1-2.673,0L0,68.518v-2.5a2.517,2.517,0,0,1,2.541-2.5H44.459A2.517,2.517,0,0,1,47,66.015Z" fill="#0072ad"/>
  </g>
</svg>
