<svg xmlns="http://www.w3.org/2000/svg" width="72" height="55" viewBox="0 0 72 55">
  <g id="cw_logo_vt_color" transform="translate(0.007 0.027)">
    <path id="パス_1703" data-name="パス 1703" d="M132.894,2.245A7.762,7.762,0,0,0,119.65,7.433V14.8a.694.694,0,0,0,.694.691h6.72a7.685,7.685,0,0,0,5.83-2.265A7.77,7.77,0,0,0,132.894,2.245Z" transform="translate(-85.92 0)" fill="#13202f"/>
    <path id="パス_1704" data-name="パス 1704" d="M62.126,23.184a7.759,7.759,0,0,0,5.19,13.244h7.362a.694.694,0,0,0,.694-.694v-6.72a7.7,7.7,0,0,0-2.265-5.83A7.776,7.776,0,0,0,62.126,23.184Z" transform="translate(-42.98 -15.012)" fill="#f03748"/>
    <path id="パス_1705" data-name="パス 1705" d="M83.033,93.805a7.759,7.759,0,0,0,13.244-5.2V81.244a.694.694,0,0,0-.691-.694H88.864a7.768,7.768,0,0,0-5.83,13.255Z" transform="translate(-57.994 -57.673)" fill="#f03748"/>
    <path id="パス_1706" data-name="パス 1706" d="M153.7,72.944a7.759,7.759,0,0,0-5.19-13.244h-7.362a.694.694,0,0,0-.694.691v6.722a7.763,7.763,0,0,0,13.247,5.83Z" transform="translate(-100.855 -42.75)" fill="#f03748"/>
    <path id="パス_1707" data-name="パス 1707" d="M110.049,166.419a3.063,3.063,0,0,1-1.625.6c-.64,0-1.178-.345-1.175-1.291v-2.786h2.789l-.631-1.872h-2.158V159.15h-1.982v1.923H103.85v1.872h1.416v2.948c0,1.96.957,3.021,2.832,3.027a4.91,4.91,0,0,0,2.549-.79Z" transform="translate(-74.558 -113.953)" fill="#13202f"/>
    <path id="パス_1708" data-name="パス 1708" d="M136.974,171.4l1.634-5.457h2.124l-2.577,7.713h-2.328l-1.668-5.12-1.674,5.12h-2.311l-2.585-7.713h2.163l1.651,5.423,1.7-5.423h2.144Z" transform="translate(-91.615 -118.82)" fill="#13202f"/>
    <path id="パス_1709" data-name="パス 1709" d="M231.027,158.864h.722l2.138-2.69h2.5l-2.987,3.559,3,4.154H233.89l-2.175-3.214h-.688v3.214H229V152.32h2.042Z" transform="translate(-164.404 -109.057)" fill="#13202f"/>
    <path id="パス_1710" data-name="パス 1710" d="M45.054,156.061a2.531,2.531,0,0,0-2.172,1.011V152.34H40.9V163.9h1.982v-4.463a1.529,1.529,0,0,1,1.6-1.47c.929,0,1.472.6,1.472,1.7v4.248h2.03v-4.893A2.8,2.8,0,0,0,45.054,156.061Z" transform="translate(-29.367 -109.071)" fill="#13202f"/>
    <path id="パス_1711" data-name="パス 1711" d="M76.607,165.617v.464a3.99,3.99,0,1,0,0,6.8v.462h1.982v-7.722Zm-2.087,5.947a2.868,2.868,0,1,1,.011,0Z" transform="translate(-50.636 -118.497)" fill="#13202f"/>
    <path id="パス_1712" data-name="パス 1712" d="M211.865,165.849a3.463,3.463,0,0,0-.756-.079,2.334,2.334,0,0,0-2.1,1.025v-.977H207v7.713h2.019v-4.12a1.527,1.527,0,0,1,1.623-1.7,3.342,3.342,0,0,1,1.235.244h0Z" transform="translate(-148.633 -118.698)" fill="#13202f"/>
    <path id="パス_1713" data-name="パス 1713" d="M178.01,165.39a3.987,3.987,0,1,0,2.822,1.168A3.99,3.99,0,0,0,178.01,165.39Zm0,6.074a2.084,2.084,0,1,1,1.476-.609A2.087,2.087,0,0,1,178.01,171.464Z" transform="translate(-124.935 -118.426)" fill="#13202f"/>
    <path id="パス_1714" data-name="パス 1714" d="M8.714,160.5a3.8,3.8,0,1,1-.02-4.834l1.54-1.26a5.782,5.782,0,1,0,0,7.362Z" transform="translate(0 -109.049)" fill="#13202f"/>
  </g>
</svg>
