<svg xmlns="http://www.w3.org/2000/svg" width="77" height="35" viewBox="0 0 77 35">
  <g id="グループ_101" data-name="グループ 101" transform="translate(-779 -7030.474)">
    <path id="多角形_3" data-name="多角形 3" d="M15.908,2.092a2,2,0,0,1,3.183,0l13.465,17.7A2,2,0,0,1,30.965,23H4.035a2,2,0,0,1-1.592-3.211Z" transform="translate(856 7030.474) rotate(90)" fill="#07c1d0"/>
    <path id="多角形_7" data-name="多角形 7" d="M15.908,2.092a2,2,0,0,1,3.183,0l13.465,17.7A2,2,0,0,1,30.965,23H4.035a2,2,0,0,1-1.592-3.211Z" transform="translate(829 7030.474) rotate(90)" fill="#07c1d0"/>
    <path id="多角形_8" data-name="多角形 8" d="M15.908,2.092a2,2,0,0,1,3.183,0l13.465,17.7A2,2,0,0,1,30.965,23H4.035a2,2,0,0,1-1.592-3.211Z" transform="translate(802 7030.474) rotate(90)" fill="#07c1d0"/>
  </g>
</svg>
