<svg xmlns="http://www.w3.org/2000/svg" viewBox="0 0 14.78 24"><defs><style>.cls-1{fill:#fccc00;}.cls-2{fill:#201d1e;}</style></defs><g id="レイヤー_2" data-name="レイヤー 2"><g id="レイヤー_1-2" data-name="レイヤー 1"><path class="cls-1" d="M9.18,14.35c0,.9,0,1.81.09,2.73,0,.38.11.47.49.44s.9-.1,1.35-.13c.23,0,.3-.1.27-.33-.06-.43-.1-.87-.15-1.31a2,2,0,0,1,.48-1.54c.23-.29.46-.57.7-.84a7,7,0,0,0,1.66-2.9c.16-.55.28-1.11.39-1.66a9.15,9.15,0,0,0,.27-3.13,5.5,5.5,0,0,0-.92-2.47A7.83,7.83,0,0,0,11,.67a3.4,3.4,0,0,0-1-.38C9.29.21,8.63.17,8,.08A7,7,0,0,0,5.24.2,4.82,4.82,0,0,0,3.45.88,13,13,0,0,0,1.22,3,5.51,5.51,0,0,0,0,6.71,15.59,15.59,0,0,0,.41,9.17a6.5,6.5,0,0,0,1.84,3.41,11,11,0,0,1,1.47,1.8A2.9,2.9,0,0,1,4.29,16c0,.33.07.66.09,1,0,.19.09.3.28.32L6,17.5a.3.3,0,0,0,.38-.27,3.57,3.57,0,0,0,.1-.73,11,11,0,0,0-.18-2.36c-.19-1.09-.48-2.16-.71-3.25a.47.47,0,0,0-.38-.41A2.57,2.57,0,0,1,3.46,9.14c-.2-.34-.23-.55-.07-.72s.43-.17.77,0l.08,0A2.36,2.36,0,0,1,5.39,9.79c.14.38.18.38.5.12a4.7,4.7,0,0,0,.61-.74.56.56,0,0,0,.07-.69,5.51,5.51,0,0,1-.34-1,2.65,2.65,0,0,1,0-1.22.54.54,0,0,1,1-.31.39.39,0,0,1,.15.16,2.18,2.18,0,0,1,.26,1.6,3.91,3.91,0,0,1-.33.86.6.6,0,0,0,.06.69,3.21,3.21,0,0,0,.48.62,1.06,1.06,0,0,0,.33.22c.33.11.46,0,.53-.32a2.18,2.18,0,0,1,.5-1,.67.67,0,0,1,.68-.2c.25.06.34.26.41.47a1.11,1.11,0,0,1-.45,1.15,3.68,3.68,0,0,1-.58.32.39.39,0,0,0-.26.48,2.45,2.45,0,0,1,0,.27A26.64,26.64,0,0,1,9.18,14.35Z"/><path class="cls-1" d="M7.5,17.61l1-.07c.43,0,.44-.06.41-.47-.06-.8-.13-1.6-.14-2.41,0-1.25-.08-2.51-.18-3.76a.38.38,0,0,0-.31-.4,1.61,1.61,0,0,1-.9-.66c-.08-.12-.17-.24-.26-.35-.23-.26-.32-.27-.48,0a2.18,2.18,0,0,1-.79.86.37.37,0,0,0-.15.48c.28,1.16.6,2.32.85,3.49A6.75,6.75,0,0,1,6.7,17c0,.11,0,.23,0,.35a.21.21,0,0,0,.22.26Z"/><path class="cls-2" d="M7.33,20.38l1.4-.15a6.36,6.36,0,0,0,1.87-.58,1.53,1.53,0,0,0,.92-1.46c0-.29-.07-.37-.35-.33a10,10,0,0,1-1.43.2c-1,0-1.94.23-2.92.19a5.57,5.57,0,0,1-2.22-.32c-.08,0-.22-.06-.22,0,0,.3-.25.62,0,.91a.67.67,0,0,1,.17.53.69.69,0,0,0,.5.73,1.81,1.81,0,0,0,.64.15A7,7,0,0,1,7.33,20.38Z"/><path class="cls-2" d="M6.36,22.24l.43,0c.82,0,1.62-.24,2.44-.25a4.08,4.08,0,0,0,1.45-.33.94.94,0,0,0,.64-.6,1.84,1.84,0,0,0,0-.74c0-.27-.1-.32-.34-.2a3,3,0,0,1-.65.26,12.61,12.61,0,0,1-2.19.41,17.81,17.81,0,0,1-2.53.15,1.39,1.39,0,0,1-.92-.34c-.06-.06-.13-.14-.23-.08s-.09.14-.07.23c.15.85.28,1.2,1.16,1.43A2.63,2.63,0,0,0,6.36,22.24Z"/><path class="cls-2" d="M7.81,24a3.69,3.69,0,0,0,1.7-.42,1,1,0,0,0,.53-1c0-.19-.08-.27-.27-.22-.57.14-1.16.14-1.73.27S7,22.8,6.4,22.89c-.13,0-.32-.08-.39.08s.07.31.14.44a.74.74,0,0,0,.48.37A6.06,6.06,0,0,0,7.81,24Z"/><path class="cls-1" d="M6.89,8.41a2.38,2.38,0,0,0,.36-.83,2.55,2.55,0,0,0-.12-1.37.35.35,0,0,0-.35-.28c-.18,0-.23.17-.26.3A3,3,0,0,0,6.89,8.41Z"/><path class="cls-1" d="M5,10.16c.29,0,.33-.06.21-.28a7,7,0,0,0-.49-.83A1.62,1.62,0,0,0,4,8.53a.37.37,0,0,0-.38,0c-.11.1-.07.24,0,.37a.67.67,0,0,0,.06.12,2.5,2.5,0,0,0,1.12,1.06A.69.69,0,0,0,5,10.16Z"/><path class="cls-1" d="M9.94,9.16c0-.05,0-.14,0-.22s-.25-.28-.4-.14A1.86,1.86,0,0,0,9,9.88C9,10,9,10,9.13,10A.85.85,0,0,0,9.94,9.16Z"/></g></g></svg>