<svg xmlns="http://www.w3.org/2000/svg" xmlns:xlink="http://www.w3.org/1999/xlink" width="82" height="82" viewBox="0 0 82 82">
  <defs>
    <filter id="楕円形_102" x="0" y="0" width="82" height="82" filterUnits="userSpaceOnUse">
      <feOffset dy="3" input="SourceAlpha"/>
      <feGaussianBlur stdDeviation="3" result="blur"/>
      <feFlood flood-opacity="0.161"/>
      <feComposite operator="in" in2="blur"/>
      <feComposite in="SourceGraphic"/>
    </filter>
  </defs>
  <g id="グループ_472" data-name="グループ 472" transform="translate(-917 -1145)">
    <g transform="matrix(1, 0, 0, 1, 917, 1145)" filter="url(#楕円形_102)">
      <circle id="楕円形_102-2" data-name="楕円形 102" cx="32" cy="32" r="32" transform="translate(9 6)" opacity="0.501"/>
    </g>
    <g id="矢印アイコン_右2" data-name="矢印アイコン　右2" transform="translate(948 1173)">
      <path id="パス_1697" data-name="パス 1697" d="M.509,20.855l8.249-8.067a1.729,1.729,0,0,1,2.426.013,1.682,1.682,0,0,1-.013,2.4L5.888,20.365H19.031a1.7,1.7,0,1,1,0,3.391H5.888l5.282,5.166a1.682,1.682,0,0,1,.013,2.4,1.729,1.729,0,0,1-2.426.013L.509,23.266a1.682,1.682,0,0,1,0-2.411Z" transform="translate(0 -12.298)" fill="#fff"/>
    </g>
  </g>
</svg>
