<svg xmlns="http://www.w3.org/2000/svg" width="40" height="40" viewBox="0 0 40 40">
  <g id="グループ_474" data-name="グループ 474" transform="translate(-1111 -1624)">
    <path id="パス_1701" data-name="パス 1701" d="M20,0A20,20,0,1,1,0,20,20,20,0,0,1,20,0Z" transform="translate(1151 1664) rotate(180)" fill="#0072ad"/>
    <path id="パス_1697" data-name="パス 1697" d="M.411,19.2l6.657-6.51a1.4,1.4,0,0,1,1.957.011,1.357,1.357,0,0,1-.011,1.935L4.752,18.808H15.357a1.368,1.368,0,1,1,0,2.736H4.752l4.262,4.169a1.358,1.358,0,0,1,.011,1.935,1.4,1.4,0,0,1-1.957.011L.411,21.149a1.358,1.358,0,0,1,0-1.946Z" transform="translate(1139.741 1664.054) rotate(180)" fill="#fff"/>
  </g>
</svg>
