<svg xmlns="http://www.w3.org/2000/svg" xmlns:xlink="http://www.w3.org/1999/xlink" width="94.895" height="90.635" viewBox="0 0 94.895 90.635">
  <defs>
    <linearGradient id="linear-gradient" x1="0.5" x2="0.5" y2="1" gradientUnits="objectBoundingBox">
      <stop offset="0" stop-color="#07c1d0"/>
      <stop offset="1" stop-color="#0072ad"/>
    </linearGradient>
  </defs>
  <path id="合体_3" data-name="合体 3" d="M.14,35.242c-.693-1.227,1.229-.492,5.274.242,6.462,1.173,18.342,2.345,33.639-4.469C50.7,25.826,55.788,20.407,57.9,16.111l-6.37-6.158a2.679,2.679,0,0,1,1.407-4.566L84.222.04a2.676,2.676,0,0,1,3.1,3L83.076,34.519a2.674,2.674,0,0,1-4.509,1.568l-5.122-4.952c-2.821,4.3-9.949,11.109-27.19,12.619-3.226.283-6.345.41-9.331.41C16.176,44.164,1.714,38.026.14,35.242Z" transform="translate(-0.001 57.305) rotate(-41)" opacity="0.896" fill="url(#linear-gradient)"/>
</svg>
