<svg xmlns="http://www.w3.org/2000/svg" width="31.411" height="23.558" viewBox="0 0 31.411 23.558">
  <g id="メールの無料アイコン素材_1_" data-name="メールの無料アイコン素材 (1)" transform="translate(0 -63.519)">
    <path id="パス_1685" data-name="パス 1685" d="M450.058,177.465l-4.138-4.3,4.138-3.567Z" transform="translate(-418.647 -99.662)" fill="#fff"/>
    <path id="パス_1686" data-name="パス 1686" d="M4.143,173.167,0,177.47V169.6Z" transform="translate(0 -99.663)" fill="#fff"/>
    <path id="パス_1687" data-name="パス 1687" d="M31.411,261.311v3.958a1.717,1.717,0,0,1-1.7,1.733H1.7A1.717,1.717,0,0,1,0,265.269v-3.958l6.071-6.432,6.935,6.1a4.208,4.208,0,0,0,5.4,0l6.93-6.1Z" transform="translate(0 -179.925)" fill="#fff"/>
    <path id="パス_1688" data-name="パス 1688" d="M31.411,65.191v1.677L16.6,79.468a1.459,1.459,0,0,1-1.786,0L0,66.868V65.191a1.684,1.684,0,0,1,1.7-1.672H29.713A1.684,1.684,0,0,1,31.411,65.191Z" fill="#fff"/>
  </g>
</svg>
